<svg width="338" height="127" viewBox="0 0 338 127" fill="none" xmlns="http://www.w3.org/2000/svg">
<path d="M40 71.88C39.212 72.0237 38.3988 71.9225 37.67 71.59C35.2695 70.5031 32.9324 69.2811 30.67 67.93C30.7206 67.0982 30.8717 66.2755 31.12 65.48C32.6667 58.96 34.2334 52.4433 35.82 45.93C36.33 43.78 36.9 41.65 37.42 39.5C37.54 38.99 37.82 38.5 37.33 37.81C35.33 40.25 33.61 42.91 31.75 45.44C29.89 47.97 28.08 50.58 26.25 53.15L20.89 60.68L15.36 68.38L9.83002 76.09C8.39073 76.0396 6.98742 75.6269 5.75002 74.89C3.54129 73.7977 1.599 72.2343 0.0600233 70.31C-0.0303973 69.6312 0.0628397 68.9405 0.330023 68.31C2.80002 59.61 5.19002 50.94 7.75002 42.32C9.78392 35.0943 12.5796 28.1051 16.09 21.47C16.66 20.47 17.3 19.47 17.89 18.41C18.0702 18.0563 18.3475 17.7613 18.6893 17.5594C19.0311 17.3575 19.4233 17.2571 19.82 17.27C22.58 17.27 25.34 17.27 28.1 17.27C28.32 17.27 28.53 17.44 28.87 17.59C27.87 20.68 26.43 23.59 25.22 26.59C24.01 29.59 22.73 32.59 21.48 35.59C20.23 38.59 18.97 41.59 17.71 44.53C16.45 47.47 15.22 50.53 13.96 53.53C14.42 53.8 14.54 53.4 14.67 53.22C15.95 51.42 17.19 49.59 18.47 47.78C25.23 38.2067 32.4067 28.9667 40 20.06C41.59 18.2 43.3 16.44 44.93 14.62C45.7277 13.7276 46.7715 13.0909 47.93 12.79C50.3622 12.1103 52.8663 11.721 55.39 11.63C55.6986 11.6357 56.0062 11.6658 56.31 11.72C56.61 12.45 56.22 13.02 56.03 13.57C54.29 18.48 52.51 23.37 50.75 28.27C48.99 33.17 47.29 37.93 45.57 42.76C45.42 43.19 45.11 43.61 45.39 44.11C45.96 43.97 46.21 43.45 46.55 43.11L62.05 24.88L74.81 9.88001C75.17 9.46001 75.55 9.05001 75.92 8.64001C76.1042 8.44137 76.3268 8.28222 76.5743 8.17221C76.8219 8.06219 77.0892 8.00361 77.36 8.00001C80.0511 7.68668 82.7781 7.94915 85.36 8.77001C85.5571 8.86137 85.7446 8.9719 85.92 9.10001C86.18 9.79001 85.7 10.19 85.39 10.61C82.2234 14.87 79.0634 19.1133 75.91 23.34L55.49 51C50.57 57.6667 45.6434 64.3333 40.71 71C40.48 71.28 40.22 71.57 40 71.88Z" fill="#92A5D3"/>
<path d="M108.83 46.52C108.751 48.1106 108.788 49.7048 108.94 51.29C109.045 52.4737 108.933 53.6665 108.61 54.81C107.006 60.779 104.146 66.3364 100.22 71.11C99.0889 72.428 97.7953 73.5974 96.37 74.59C93.9352 76.2926 90.9335 76.9812 88 76.51C84.6907 76.1598 81.4953 75.1026 78.63 73.41C76.1499 72.0021 74.0222 70.0489 72.4076 67.6981C70.793 65.3473 69.7338 62.6602 69.31 59.84C68.7725 55.8267 69.0445 51.7464 70.11 47.84C71.0664 44.0888 72.5228 40.4831 74.44 37.12C77.2134 32.2511 80.4483 27.66 84.1 23.41C86.5808 20.4262 89.2531 17.6069 92.1 14.97C95.3479 11.8355 99.0578 9.21837 103.1 7.21001C104.737 6.42926 106.445 5.80644 108.2 5.35001C110.509 4.71474 112.961 4.83031 115.2 5.68001C115.65 5.85001 116.08 6.05001 116.52 6.22001C118.36 6.92001 118.36 6.92001 120.52 6.62001L123.66 9.05001C123.911 11.5818 123.475 14.1343 122.4 16.44C121.482 18.5431 120.203 20.469 118.62 22.13C116 24.87 113.35 27.58 110.75 30.27C108.69 30.27 107.56 29.78 104.86 27.93C104.94 26.4495 105.329 25.002 106 23.68C106.77 22.12 107.57 20.58 108.32 19.02C108.937 17.9355 109.28 16.717 109.32 15.47C109.05 15.12 108.76 15.19 108.45 15.3C105.443 16.292 102.672 17.8918 100.31 20C96.1608 23.6646 92.5903 27.9364 89.72 32.67C87.1689 36.7521 84.9228 41.017 83 45.43C81.9738 47.7404 81.1864 50.1495 80.65 52.62C80.1438 54.8557 80.0758 57.1684 80.45 59.43C80.8102 61.6295 81.8609 63.6573 83.45 65.22C84.1759 65.957 85.1066 66.4588 86.1212 66.6603C87.1358 66.8618 88.1876 66.7537 89.14 66.35C90.3934 65.8737 91.5617 65.1984 92.6 64.35C94.9894 62.4027 97.1201 60.1578 98.94 57.67C101.34 54.54 103.67 51.35 106.04 48.2C106.45 47.6183 106.898 47.0638 107.38 46.54C107.7 46.13 108.16 46.06 108.83 46.52Z" fill="#92A5D3"/>
<path d="M124.09 53.53C124.727 53.7795 125.28 54.2056 125.684 54.7582C126.088 55.3108 126.326 55.967 126.37 56.65C125.97 57.41 125.22 57.57 124.64 57.96C122.256 59.4101 120.436 61.6283 119.48 64.25C119.407 64.4749 119.353 64.7058 119.32 64.94C119.31 65.1265 119.31 65.3135 119.32 65.5C119.553 65.8495 119.878 66.1278 120.259 66.3042C120.64 66.4807 121.063 66.5485 121.48 66.5C123.835 66.6168 126.194 66.3843 128.48 65.81C132.549 64.7929 136.551 63.5204 140.46 62C143.453 60.9416 146.13 59.1423 148.24 56.77C149.528 55.264 150.443 53.4756 150.91 51.55C151.34 49.82 150.98 49.15 149.29 48.39C148.641 48.1041 147.973 47.8635 147.29 47.67C144.42 46.82 141.53 46.02 138.66 45.17C135.676 44.3866 132.817 43.1847 130.17 41.6C129.315 41.0373 128.491 40.4297 127.7 39.78C126.139 38.4242 125.06 36.5984 124.625 34.5769C124.191 32.5555 124.424 30.4476 125.29 28.57C126.437 26.2181 128.082 24.1435 130.11 22.49C133.464 19.8452 137.191 17.7121 141.17 16.16C146.089 14.218 151.206 12.8229 156.43 12C158.448 11.6241 160.484 11.3571 162.53 11.2C166.2 10.98 169.22 12.2 171.03 15.61C171.518 16.5867 171.955 17.5881 172.34 18.61C172.438 18.8343 172.476 19.0799 172.451 19.3233C172.427 19.5666 172.34 19.7996 172.2 20C171.784 20.671 171.326 21.3155 170.83 21.93C168.3 24.7957 164.924 26.7815 161.19 27.6C159.709 28.0549 158.154 28.2212 156.61 28.09C156.11 27.48 155.53 26.84 155.03 26.09C154.732 25.7623 154.571 25.3328 154.581 24.89C154.59 24.4473 154.769 24.0249 155.08 23.71C155.35 23.34 155.66 22.99 156.08 22.49C153.857 22.8545 151.659 23.3588 149.5 24C147.6 24.5 145.72 25.13 143.87 25.81C142.012 26.4899 140.271 27.4548 138.71 28.67C137.435 29.6528 136.529 31.0377 136.14 32.6C136.204 32.9425 136.361 33.2608 136.594 33.5201C136.827 33.7793 137.126 33.9696 137.46 34.07C138.481 34.4778 139.531 34.812 140.6 35.07C144.21 35.93 147.83 36.69 151.44 37.55C154.65 38.2131 157.613 39.7535 160 42C161.627 43.5126 162.822 45.4319 163.46 47.56C163.894 49.2543 163.818 51.0391 163.24 52.69C162.83 54.0637 162.308 55.4015 161.68 56.69C159.325 61.6465 155.584 65.8145 150.91 68.69C144.062 73.1094 136.426 76.1653 128.42 77.69C126.411 78.0984 124.369 78.3227 122.32 78.36C120.741 78.3112 119.17 78.1103 117.63 77.76C115.925 77.3877 114.319 76.6546 112.92 75.61C109.6 73.22 108.67 70.08 109.58 66.24C110.238 63.6953 111.584 61.3807 113.47 59.55C116.095 56.7864 119.409 54.7708 123.07 53.71L123.77 53.55C123.876 53.5366 123.983 53.5299 124.09 53.53Z" fill="#92A5D3"/>
<path d="M330.33 4.57001L314.33 32.45C314.64 32.91 314.91 32.67 315.13 32.45C317.275 30.7174 319.627 29.2564 322.13 28.1C323.984 27.213 325.997 26.7064 328.05 26.61C329.519 26.5551 330.974 26.9059 332.257 27.6239C333.539 28.3419 334.599 29.3992 335.32 30.68C336.123 31.9772 336.692 33.4057 337 34.9C337.664 38.001 337.586 41.2153 336.77 44.28C335.849 47.7198 334.314 50.9652 332.24 53.86C330.917 55.8258 329.421 57.6698 327.77 59.37C324.722 62.6855 321.459 65.7956 318 68.68C315.245 71.0534 312.176 73.0355 308.88 74.57C306.414 75.6401 303.735 76.1293 301.05 76C298.938 75.9519 296.909 75.1716 295.309 73.7925C293.71 72.4135 292.639 70.5214 292.28 68.44C291.773 65.396 291.906 62.2798 292.67 59.29C293.969 53.5106 296.052 47.9358 298.86 42.72C301.29 38.02 303.86 33.39 306.36 28.72C308.86 24.05 311.55 19.15 314.16 14.36C315.82 11.36 317.48 8.27001 319.16 5.24001C320.018 3.6436 321.022 2.13042 322.16 0.720007C322.277 0.534152 322.43 0.373744 322.61 0.248393C322.79 0.123042 322.993 0.0353285 323.208 -0.00949157C323.423 -0.0543116 323.644 -0.0553159 323.859 -0.0124442C324.075 0.0304275 324.279 0.116293 324.46 0.240007C325.078 0.593518 325.661 1.0054 326.2 1.47001C326.894 2.15491 327.73 2.67746 328.65 3.00001C329.042 3.09406 329.403 3.28815 329.697 3.56333C329.992 3.83851 330.21 4.18536 330.33 4.57001ZM302.14 66C303.248 66.3003 304.427 66.1903 305.46 65.69C306.772 65.1461 308.02 64.4586 309.18 63.64C315.486 59.1058 320.694 53.2144 324.42 46.4C325.552 44.316 326.355 42.0694 326.8 39.74C327.078 38.9128 327.078 38.0172 326.8 37.19C326.411 36.9168 325.957 36.7499 325.483 36.7061C325.01 36.6622 324.533 36.7429 324.1 36.94C322.514 37.4348 321.02 38.1883 319.68 39.17C313.24 43.66 307.77 49.02 304.59 56.38C304.46 56.66 304.32 56.95 304.18 57.23C303.206 59.2128 302.507 61.3187 302.1 63.49C301.879 64.314 301.893 65.1835 302.14 66Z" fill="#92A5D3"/>
<path d="M242.06 8.92001C242.112 13.2729 240.584 17.497 237.76 20.81C236.714 22.096 235.602 23.3276 234.43 24.5C232.52 26.39 230.54 28.19 228.43 30.19C226.507 29.8544 224.694 29.0546 223.15 27.86C223.069 26.4941 223.381 25.1336 224.05 23.94C224.77 22.36 225.58 20.82 226.36 19.27C227.017 17.976 227.488 16.5957 227.76 15.17C227.25 14.76 226.88 14.98 226.52 15.1C223.091 16.3375 219.965 18.2908 217.35 20.83C212.462 25.5634 208.37 31.0539 205.23 37.09C202.811 41.259 200.843 45.6739 199.36 50.26C198.49 53.0554 198.211 56.001 198.54 58.91C198.82 61.121 199.781 63.1902 201.29 64.83C202.088 65.7202 203.155 66.3252 204.328 66.5526C205.502 66.7801 206.717 66.6176 207.79 66.09C209.236 65.4514 210.559 64.5647 211.7 63.47C214.034 61.3523 216.151 59.0074 218.02 56.47C220.25 53.47 222.44 50.47 224.66 47.53C224.978 47.0821 225.337 46.6637 225.73 46.28C225.876 46.1347 226.074 46.0531 226.28 46.0531C226.486 46.0531 226.684 46.1347 226.83 46.28C227.15 46.66 227.02 47.15 227.04 47.61C226.945 48.3134 226.945 49.0266 227.04 49.73C227.455 51.4248 227.368 53.2037 226.79 54.85C225.253 60.6714 222.488 66.0963 218.68 70.76C217.397 72.3709 215.86 73.7624 214.13 74.88C212.542 75.9404 210.679 76.5139 208.77 76.53C200.54 76.43 193.91 73.32 189.54 66.1C188.885 65.0169 188.39 63.8448 188.07 62.62C187.203 59.4166 186.945 56.0787 187.31 52.78C188.13 45.43 191.11 38.96 195.06 32.89C199.517 25.9768 204.848 19.668 210.92 14.12C213.993 11.2686 217.458 8.871 221.21 7.00001C223.698 5.79667 226.361 4.99347 229.1 4.62001C229.568 4.57096 230.041 4.59798 230.5 4.70001C232.04 5.00565 233.546 5.4577 235 6.05001C235.854 6.46325 236.822 6.57939 237.75 6.38001C238.062 6.32158 238.383 6.33826 238.688 6.42868C238.992 6.5191 239.271 6.68067 239.5 6.90001C240.31 7.55001 241.12 8.17001 242.06 8.92001Z" fill="#92A5D3"/>
<path d="M278.07 76.42C277.699 76.5863 277.28 76.6163 276.889 76.5047C276.498 76.3932 276.158 76.1472 275.93 75.81C275.607 75.3091 275.177 74.8867 274.67 74.5735C274.163 74.2604 273.592 74.0644 273 74C271.95 73.82 271.75 73.39 271.81 72.31C271.888 70.8912 272.154 69.489 272.6 68.14C272.9 67.26 273.16 66.36 273.43 65.46C272.82 65.21 272.66 65.68 272.43 65.87C272.178 66.0583 271.944 66.2692 271.73 66.5C270.04 68.04 268.38 69.63 266.66 71.13C264.743 72.7837 262.606 74.1635 260.31 75.23C259.02 75.8427 257.617 76.1831 256.19 76.23C255.238 76.2714 254.289 76.1151 253.4 75.7708C252.512 75.4266 251.705 74.9019 251.03 74.23C249.728 73.0656 248.727 71.6034 248.112 69.9684C247.498 68.3333 247.288 66.5738 247.5 64.84C247.858 61.7792 248.702 58.7951 250 56C252.241 51.0359 254.918 46.2805 258 41.79C260.873 37.63 263.92 33.6 267.14 29.7C267.29 29.52 267.46 29.36 267.58 29.24C269.2 28.52 270.58 29.4 271.89 29.8L274.76 29.32C275.155 29.2594 275.558 29.3486 275.89 29.57C276.035 29.6359 276.151 29.7528 276.215 29.8984C276.28 30.0441 276.289 30.2083 276.24 30.36C275.989 30.9367 275.692 31.4919 275.35 32.02C272.19 37.0267 269.03 42.0267 265.87 47.02C263.511 50.6671 261.351 54.4393 259.4 58.32C258.756 59.5872 258.275 60.9314 257.97 62.32C257.77 63.26 257.82 63.39 258.43 64.51C258.964 64.6689 259.538 64.6114 260.03 64.35C262.235 63.4635 264.236 62.1364 265.91 60.45C268.063 58.3652 270.067 56.1331 271.91 53.77C276.98 47.51 281.59 40.9 286.19 34.29C286.91 33.29 287.61 32.2 288.36 31.19C289.23 30.03 289.81 29.87 291.23 30.28C291.68 30.41 292.13 30.55 292.58 30.71C293.065 30.9045 293.589 30.9832 294.11 30.9398C294.63 30.8964 295.134 30.7321 295.58 30.46C296.229 29.9948 297.025 29.7815 297.82 29.86C297.939 29.8669 298.054 29.8998 298.158 29.9562C298.263 30.0127 298.353 30.0914 298.424 30.1868C298.495 30.2822 298.543 30.392 298.567 30.5083C298.59 30.6246 298.588 30.7447 298.56 30.86C298.33 31.53 298.06 32.19 297.77 32.86C293.857 41.5667 289.933 50.28 286 59C283.64 64.26 281.3 69.52 278.94 74.78C278.69 75.32 278.37 75.85 278.07 76.42Z" fill="#92A5D3"/>
<path d="M227.83 71.45C227.67 71.12 227.83 70.52 228.09 69.93C229.44 66.38 230.71 62.81 232.4 59.42C237.66 48.81 242.9 38.2 248.53 27.78C250.67 23.78 252.99 19.97 255.24 16.08C255.64 15.4 256.08 14.73 256.54 14.08C256.717 13.8126 256.98 13.6141 257.286 13.5177C257.592 13.4212 257.922 13.4326 258.22 13.55L260.55 14.29C261.55 13.89 262.55 13.45 263.55 13.07C263.839 12.9227 264.171 12.8851 264.486 12.9641C264.8 13.0432 265.075 13.2336 265.26 13.5C265.37 14.16 264.92 14.66 264.64 15.2C261.08 21.98 257.71 28.84 254.37 35.73C250.235 44.3397 246.645 53.2005 243.62 62.26C242.32 66.14 241.04 70.04 239.74 73.93C239.54 74.52 239.32 75.11 239.16 75.58C238.962 75.7496 238.723 75.8639 238.466 75.9113C238.21 75.9588 237.946 75.9376 237.7 75.85C235.299 75.36 233.006 74.442 230.93 73.14C230.384 72.8238 229.808 72.5625 229.21 72.36C228.93 72.3096 228.664 72.2029 228.427 72.0465C228.19 71.8901 227.987 71.6872 227.83 71.45Z" fill="#92A5D3"/>
<path d="M101.82 99.85H110.46C115.46 99.85 117.89 102.73 117.89 106.34C117.937 107.463 117.637 108.574 117.03 109.52C116.424 110.467 115.54 111.203 114.5 111.63C116.085 111.98 117.499 112.869 118.5 114.146C119.501 115.423 120.028 117.008 119.99 118.63C119.99 122.91 117.19 126.33 111.47 126.33H101.82V99.85ZM110.73 110.78C114.08 110.78 115.36 108.95 115.36 106.38C115.36 103.97 113.92 102.1 110.3 102.1H104.3V110.78H110.73ZM111.24 124.04C115.63 124.04 117.42 121.67 117.42 118.52C117.42 115.37 115.42 112.92 111.16 112.92H104.35V124L111.24 124.04Z" fill="#92A5D3"/>
<path d="M126.63 121.71L124.76 126.3H122.24L132.86 100.47C132.075 100.321 131.374 99.8838 130.894 99.2448C130.414 98.6059 130.189 97.8109 130.264 97.0153C130.339 96.2196 130.708 95.4805 131.299 94.9426C131.89 94.4047 132.661 94.1066 133.46 94.1066C134.259 94.1066 135.03 94.4047 135.621 94.9426C136.212 95.4805 136.581 96.2196 136.656 97.0153C136.731 97.8109 136.506 98.6059 136.026 99.2448C135.546 99.8838 134.845 100.321 134.06 100.47L144.72 126.3H142.11L140.29 121.71H126.63ZM139.35 119.45L133.48 104.79L127.53 119.45H139.35ZM135 97.45C135.019 97.238 134.995 97.0243 134.927 96.8223C134.86 96.6204 134.751 96.4346 134.608 96.2767C134.466 96.1189 134.292 95.9923 134.097 95.9051C133.903 95.8179 133.693 95.7719 133.48 95.77C133.265 95.7708 133.053 95.8158 132.856 95.9021C132.659 95.9884 132.482 96.1142 132.336 96.2717C132.189 96.4292 132.077 96.615 132.006 96.8177C131.934 97.0204 131.905 97.2356 131.92 97.45C131.906 97.6617 131.936 97.874 132.009 98.0734C132.081 98.2728 132.195 98.455 132.341 98.6082C132.488 98.7615 132.665 98.8826 132.861 98.9639C133.057 99.0451 133.268 99.0846 133.48 99.08C133.691 99.0822 133.899 99.0403 134.093 98.957C134.286 98.8738 134.46 98.751 134.603 98.5965C134.746 98.4421 134.856 98.2594 134.924 98.0602C134.992 97.8611 135.018 97.6498 135 97.44V97.45Z" fill="#92A5D3"/>
<path d="M165.52 126.3H162.45L157.2 119.53C156.479 119.646 155.75 119.699 155.02 119.69H151.79V126.3H149.26V99.85H155C162.2 99.85 165.93 104.09 165.93 109.85C165.93 114.09 163.83 117.55 159.75 118.99L165.52 126.3ZM154.87 117.47C160.87 117.47 163.31 114.24 163.31 109.81C163.31 105.38 160.86 102.1 154.87 102.1H151.79V117.47H154.87Z" fill="#92A5D3"/>
<path d="M171.43 99.85H178C186.75 99.85 192 105.25 192 113.07C192 120.89 186.82 126.3 178 126.3H171.39L171.43 99.85ZM177.81 124C185.63 124 189.36 119.48 189.36 113.06C189.36 106.64 185.63 102.13 177.81 102.13H174V124H177.81Z" fill="#92A5D3"/>
<path d="M195.88 126.3H193.36L204.48 99.23H204.68L215.84 126.3H213.23L211.41 121.71H197.75L195.88 126.3ZM204.6 104.79L198.65 119.45H210.47L204.6 104.79Z" fill="#92A5D3"/>
<path d="M236.64 126.3H233.57L228.32 119.53C227.599 119.646 226.87 119.699 226.14 119.69H222.91V126.3H220.38V99.85H226.14C233.34 99.85 237.07 104.09 237.07 109.85C237.07 114.09 234.97 117.55 230.89 118.99L236.64 126.3ZM226 117.47C232 117.47 234.45 114.24 234.45 109.81C234.45 105.38 232 102.1 226 102.1H222.93V117.47H226Z" fill="#92A5D3"/>
</svg>
